<svg width="22" height="22" viewBox="0 0 22 22" fill="none" xmlns="http://www.w3.org/2000/svg">
<path d="M11.24 21.98C10.76 21.98 10.355 21.815 10.025 21.485C9.695 21.155 9.53 20.735 9.53 20.225V13.16H2.465C1.985 13.16 1.58 12.995 1.25 12.665C0.92 12.335 0.755 11.915 0.755 11.405C0.755 10.925 0.92 10.52 1.25 10.19C1.58 9.83 1.985 9.65 2.465 9.65H9.53V2.585C9.53 2.105 9.695 1.7 10.025 1.37C10.355 1.04 10.76 0.875 11.24 0.875C11.75 0.875 12.17 1.04 12.5 1.37C12.83 1.7 12.995 2.105 12.995 2.585V9.65H20.06C20.54 9.65 20.945 9.83 21.275 10.19C21.635 10.52 21.815 10.925 21.815 11.405C21.815 11.915 21.635 12.335 21.275 12.665C20.945 12.995 20.54 13.16 20.06 13.16H12.995V20.225C12.995 20.735 12.83 21.155 12.5 21.485C12.17 21.815 11.75 21.98 11.24 21.98Z" fill="#EE6D18"/>
</svg>
