<?xml version="1.0" standalone="no"?>
<!DOCTYPE svg PUBLIC "-//W3C//DTD SVG 20010904//EN"
 "http://www.w3.org/TR/2001/REC-SVG-20010904/DTD/svg10.dtd">
<svg version="1.0" xmlns="http://www.w3.org/2000/svg"
 width="260.000000pt" height="260.000000pt" viewBox="0 0 260.000000 260.000000"
 preserveAspectRatio="xMidYMid meet">
<metadata>
Created by potrace 1.14, written by Peter Selinger 2001-2017
</metadata>
<g transform="translate(0.000000,260.000000) scale(0.100000,-0.100000)"
fill="#000000" stroke="none">
<path d="M1188 1790 c-79 -24 -148 -78 -182 -140 -23 -42 -28 -65 -29 -119 0
-79 22 -130 82 -184 54 -49 102 -72 253 -122 70 -23 138 -49 152 -59 37 -24
58 -60 58 -100 0 -53 -10 -72 -54 -102 -38 -27 -48 -29 -132 -29 -75 0 -98 4
-133 22 -49 27 -79 65 -88 115 -4 22 -14 39 -24 42 -29 8 -126 4 -137 -5 -33
-27 21 -165 85 -221 157 -138 471 -131 595 13 42 50 56 92 56 172 0 147 -86
224 -342 308 -132 42 -174 67 -193 112 -38 90 31 166 157 172 112 6 191 -43
205 -129 8 -50 21 -57 100 -54 l68 3 3 38 c6 68 -56 172 -133 225 -87 59 -252
78 -367 42z"/>
<path d="M2051 1799 c-179 -35 -287 -201 -230 -353 33 -87 123 -157 259 -201
216 -69 255 -92 268 -155 11 -51 4 -76 -29 -110 -48 -48 -133 -62 -238 -39
-67 14 -124 68 -137 130 l-9 44 -72 2 c-61 2 -74 -1 -82 -16 -19 -35 4 -110
56 -180 93 -123 353 -172 518 -97 106 48 166 132 166 231 0 90 -17 135 -76
191 -58 58 -101 79 -255 130 -175 58 -211 85 -213 160 -2 78 61 126 168 129
112 4 188 -43 201 -126 4 -21 12 -43 19 -49 8 -6 43 -10 82 -8 l68 3 -1 50
c-3 121 -110 231 -256 265 -51 11 -146 11 -207 -1z"/>
<path d="M82 1782 c-11 -22 -9 -953 2 -970 11 -18 324 -15 408 4 158 37 270
150 311 314 18 68 21 236 7 310 -23 120 -92 226 -185 286 -92 58 -130 66 -342
70 -174 3 -194 2 -201 -14z m410 -150 c70 -32 122 -95 146 -177 13 -45 17
-218 7 -280 -17 -101 -98 -196 -190 -220 -36 -9 -174 -16 -196 -9 -14 4 -16
43 -16 352 0 191 1 350 3 353 2 3 49 5 104 3 72 -2 112 -8 142 -22z"/>
</g>
</svg>
